<svg width="40" height="41" viewBox="0 0 40 41" fill="none" xmlns="http://www.w3.org/2000/svg">
<path d="M20 40.5527C31.0457 40.5527 40 31.5984 40 20.5527C40 9.50704 31.0457 0.552734 20 0.552734C8.9543 0.552734 0 9.50704 0 20.5527C0 31.5984 8.9543 40.5527 20 40.5527Z" fill="#18A974"/>
<path fill-rule="evenodd" clip-rule="evenodd" d="M23.3881 19.4238H16.6121C14.815 19.4238 13.0916 20.1377 11.8208 21.4085C10.5501 22.6792 9.83618 24.4027 9.83618 26.1998C9.83618 27.9969 10.5501 29.7204 11.8208 30.9911C13.0916 32.2618 14.815 32.9757 16.6121 32.9757H23.3881C25.1852 32.9757 26.9087 32.2618 28.1794 30.9911C29.4502 29.7204 30.1641 27.9969 30.1641 26.1998C30.1641 24.4027 29.4502 22.6792 28.1794 21.4085C26.9087 20.1377 25.1852 19.4238 23.3881 19.4238ZM24.5541 30.7471H15.4513C14.2452 30.7471 13.0886 30.268 12.2358 29.4152C11.3831 28.5624 10.904 27.4058 10.904 26.1998C10.904 24.9938 11.3831 23.8371 12.2358 22.9844C13.0886 22.1316 14.2452 21.6525 15.4513 21.6525H24.5541C25.7601 21.6525 26.9167 22.1316 27.7695 22.9844C28.6223 23.8371 29.1014 24.9938 29.1014 26.1998C29.1014 27.4058 28.6223 28.5624 27.7695 29.4152C26.9167 30.268 25.7601 30.7471 24.5541 30.7471Z" fill="url(#paint0_linear_1858_6741)"/>
<path fill-rule="evenodd" clip-rule="evenodd" d="M23.4157 13.8145H16.6579C14.8799 13.8362 13.1821 14.5559 11.9325 15.8174C10.6829 17.079 9.98218 18.7808 9.98218 20.554C9.98218 22.3272 10.6829 24.029 11.9325 25.2905C13.1821 26.5521 14.8799 27.2717 16.6579 27.2935H23.4157C25.1937 27.2717 26.8915 26.5521 28.1411 25.2905C29.3907 24.029 30.0915 22.3272 30.0915 20.554C30.0915 18.7808 29.3907 17.079 28.1411 15.8174C26.8915 14.5559 25.1937 13.8362 23.4157 13.8145ZM24.5786 25.076H15.5002C14.2974 25.076 13.1439 24.5995 12.2934 23.7514C11.4429 22.9032 10.9651 21.7529 10.9651 20.5535C10.9651 19.354 11.4429 18.2037 12.2934 17.3556C13.1439 16.5074 14.2974 16.031 15.5002 16.031H24.5786C25.7813 16.031 26.9349 16.5074 27.7854 17.3556C28.6359 18.2037 29.1137 19.354 29.1137 20.5535C29.1137 21.7529 28.6359 22.9032 27.7854 23.7514C26.9349 24.5995 25.7813 25.076 24.5786 25.076Z" fill="url(#paint1_linear_1858_6741)"/>
<path fill-rule="evenodd" clip-rule="evenodd" d="M23.3881 8.13086H16.6121C14.815 8.13086 13.0916 8.84475 11.8208 10.1155C10.5501 11.3862 9.83618 13.1097 9.83618 14.9068C9.83618 16.7039 10.5501 18.4274 11.8208 19.6981C13.0916 20.9689 14.815 21.6828 16.6121 21.6828H23.3881C25.1852 21.6828 26.9087 20.9689 28.1794 19.6981C29.4502 18.4274 30.1641 16.7039 30.1641 14.9068C30.1641 13.1097 29.4502 11.3862 28.1794 10.1155C26.9087 8.84475 25.1852 8.13086 23.3881 8.13086ZM24.5541 19.4572H15.4513C14.2452 19.4572 13.0886 18.9781 12.2358 18.1253C11.3831 17.2725 10.904 16.1159 10.904 14.9099C10.904 13.7039 11.3831 12.5472 12.2358 11.6945C13.0886 10.8417 14.2452 10.3626 15.4513 10.3626H24.5541C25.7601 10.3626 26.9167 10.8417 27.7695 11.6945C28.6223 12.5472 29.1014 13.7039 29.1014 14.9099C29.1014 16.1159 28.6223 17.2725 27.7695 18.1253C26.9167 18.9781 25.7601 19.4572 24.5541 19.4572Z" fill="url(#paint2_linear_1858_6741)"/>
<defs>
<linearGradient id="paint0_linear_1858_6741" x1="21.176" y1="33.0251" x2="26.0495" y2="26.18" gradientUnits="userSpaceOnUse">
<stop stop-color="#F3FCF8"/>
<stop offset="1" stop-color="#45B98F"/>
</linearGradient>
<linearGradient id="paint1_linear_1858_6741" x1="14.8495" y1="25.0229" x2="22.7334" y2="15.7323" gradientUnits="userSpaceOnUse">
<stop stop-color="#F9FFFD"/>
<stop offset="1" stop-color="#57C29B"/>
</linearGradient>
<linearGradient id="paint2_linear_1858_6741" x1="18.4182" y1="19.7231" x2="30.1641" y2="11.9686" gradientUnits="userSpaceOnUse">
<stop stop-color="white"/>
<stop offset="1" stop-color="#B0EFD8"/>
</linearGradient>
</defs>
</svg>
