<svg width="60" height="60" viewBox="0 0 60 60" fill="none" xmlns="http://www.w3.org/2000/svg">
<path d="M30 60C46.5685 60 60 46.5685 60 30C60 13.4315 46.5685 0 30 0C13.4314 0 0 13.4315 0 30C0 46.5685 13.4314 60 30 60Z" fill="#18A974"/>
<path fill-rule="evenodd" clip-rule="evenodd" d="M35.082 28.3059H24.9181C22.2224 28.3059 19.6372 29.3767 17.7311 31.2829C15.825 33.189 14.7542 35.7742 14.7542 38.4698C14.7542 41.1655 15.825 43.7507 17.7311 45.6568C19.6372 47.5629 22.2224 48.6338 24.9181 48.6338H35.082C37.7777 48.6338 40.3629 47.5629 42.269 45.6568C44.1751 43.7507 45.246 41.1655 45.246 38.4698C45.246 35.7742 44.1751 33.189 42.269 31.2829C40.3629 29.3767 37.7777 28.3059 35.082 28.3059ZM36.831 45.2908H23.1768C21.3677 45.2908 19.6328 44.5722 18.3536 43.293C17.0745 42.0138 16.3558 40.2789 16.3558 38.4698C16.3558 36.6608 17.0745 34.9259 18.3536 33.6467C19.6328 32.3675 21.3677 31.6489 23.1768 31.6489H36.831C38.64 31.6489 40.3749 32.3675 41.6541 33.6467C42.9333 34.9259 43.6519 36.6608 43.6519 38.4698C43.6519 40.2789 42.9333 42.0138 41.6541 43.293C40.3749 44.5722 38.64 45.2908 36.831 45.2908Z" fill="url(#paint0_linear_78_410)"/>
<path fill-rule="evenodd" clip-rule="evenodd" d="M35.1234 19.8914H24.9868C22.3198 19.924 19.7731 21.0035 17.8987 22.8958C16.0243 24.7881 14.9731 27.3408 14.9731 30.0006C14.9731 32.6605 16.0243 35.2132 17.8987 37.1055C19.7731 38.9978 22.3198 40.0773 24.9868 40.1099H35.1234C37.7905 40.0773 40.3372 38.9978 42.2116 37.1055C44.086 35.2132 45.1371 32.6605 45.1371 30.0006C45.1371 27.3408 44.086 24.7881 42.2116 22.8958C40.3372 21.0035 37.7905 19.924 35.1234 19.8914ZM36.8677 36.7837H23.2502C21.446 36.7837 19.7157 36.0689 18.44 34.7967C17.1642 33.5245 16.4475 31.7991 16.4475 29.9999C16.4475 28.2007 17.1642 26.4752 18.44 25.203C19.7157 23.9308 21.446 23.2161 23.2502 23.2161H36.8677C38.6719 23.2161 40.4022 23.9308 41.6779 25.203C42.9537 26.4752 43.6704 28.2007 43.6704 29.9999C43.6704 31.7991 42.9537 33.5245 41.6779 34.7967C40.4022 36.0689 38.6719 36.7837 36.8677 36.7837Z" fill="url(#paint1_linear_78_410)"/>
<path fill-rule="evenodd" clip-rule="evenodd" d="M35.082 11.3672H24.9181C22.2224 11.3672 19.6372 12.438 17.7311 14.3441C15.825 16.2502 14.7542 18.8355 14.7542 21.5311C14.7542 24.2268 15.825 26.812 17.7311 28.7181C19.6372 30.6242 22.2224 31.6951 24.9181 31.6951H35.082C37.7777 31.6951 40.3629 30.6242 42.269 28.7181C44.1751 26.812 45.246 24.2268 45.246 21.5311C45.246 18.8355 44.1751 16.2502 42.269 14.3441C40.3629 12.438 37.7777 11.3672 35.082 11.3672ZM36.831 28.3567H23.1768C21.3677 28.3567 19.6328 27.638 18.3536 26.3589C17.0745 25.0797 16.3558 23.3448 16.3558 21.5357C16.3558 19.7267 17.0745 17.9918 18.3536 16.7126C19.6328 15.4334 21.3677 14.7148 23.1768 14.7148H36.831C38.64 14.7148 40.3749 15.4334 41.6541 16.7126C42.9333 17.9918 43.6519 19.7267 43.6519 21.5357C43.6519 23.3448 42.9333 25.0797 41.6541 26.3589C40.3749 27.638 38.64 28.3567 36.831 28.3567Z" fill="url(#paint2_linear_78_410)"/>
<defs>
<linearGradient id="paint0_linear_78_410" x1="31.7638" y1="48.7079" x2="39.0742" y2="38.4402" gradientUnits="userSpaceOnUse">
<stop stop-color="#F3FCF8"/>
<stop offset="1" stop-color="#45B98F"/>
</linearGradient>
<linearGradient id="paint1_linear_78_410" x1="22.2741" y1="36.704" x2="34.0999" y2="22.7681" gradientUnits="userSpaceOnUse">
<stop stop-color="#F9FFFD"/>
<stop offset="1" stop-color="#57C29B"/>
</linearGradient>
<linearGradient id="paint2_linear_78_410" x1="27.6271" y1="28.7556" x2="45.246" y2="17.1238" gradientUnits="userSpaceOnUse">
<stop stop-color="white"/>
<stop offset="1" stop-color="#B0EFD8"/>
</linearGradient>
</defs>
</svg>
