<svg width="60" height="60" viewBox="0 0 60 60" fill="none" xmlns="http://www.w3.org/2000/svg">
<path d="M30 60C46.5685 60 60 46.5685 60 30C60 13.4315 46.5685 0 30 0C13.4314 0 0 13.4315 0 30C0 46.5685 13.4314 60 30 60Z" fill="#0B1111"/>
<path fill-rule="evenodd" clip-rule="evenodd" d="M35.082 28.3057H24.9181C22.2224 28.3057 19.6372 29.3765 17.7311 31.2826C15.825 33.1887 14.7542 35.774 14.7542 38.4696C14.7542 41.1652 15.825 43.7505 17.7311 45.6566C19.6372 47.5627 22.2224 48.6335 24.9181 48.6335H35.082C37.7777 48.6335 40.3629 47.5627 42.269 45.6566C44.1751 43.7505 45.246 41.1652 45.246 38.4696C45.246 35.774 44.1751 33.1887 42.269 31.2826C40.3629 29.3765 37.7777 28.3057 35.082 28.3057ZM36.831 45.2906H23.1768C21.3677 45.2906 19.6328 44.5719 18.3536 43.2927C17.0745 42.0136 16.3558 40.2786 16.3558 38.4696C16.3558 36.6606 17.0745 34.9256 18.3536 33.6465C19.6328 32.3673 21.3677 31.6486 23.1768 31.6486H36.831C38.64 31.6486 40.3749 32.3673 41.6541 33.6465C42.9333 34.9256 43.6519 36.6606 43.6519 38.4696C43.6519 40.2786 42.9333 42.0136 41.6541 43.2927C40.3749 44.5719 38.64 45.2906 36.831 45.2906Z" fill="url(#paint0_linear_78_403)"/>
<path fill-rule="evenodd" clip-rule="evenodd" d="M35.1234 19.8911H24.9868C22.3198 19.9238 19.7731 21.0033 17.8987 22.8956C16.0243 24.7879 14.9731 27.3406 14.9731 30.0004C14.9731 32.6602 16.0243 35.2129 17.8987 37.1052C19.7731 38.9976 22.3198 40.077 24.9868 40.1097H35.1234C37.7905 40.077 40.3372 38.9976 42.2116 37.1052C44.086 35.2129 45.1371 32.6602 45.1371 30.0004C45.1371 27.3406 44.086 24.7879 42.2116 22.8956C40.3372 21.0033 37.7905 19.9238 35.1234 19.8911ZM36.8677 36.7834H23.2502C21.446 36.7834 19.7157 36.0687 18.44 34.7965C17.1642 33.5243 16.4475 31.7988 16.4475 29.9996C16.4475 28.2005 17.1642 26.475 18.44 25.2028C19.7157 23.9306 21.446 23.2159 23.2502 23.2159H36.8677C38.6719 23.2159 40.4022 23.9306 41.6779 25.2028C42.9537 26.475 43.6704 28.2005 43.6704 29.9996C43.6704 31.7988 42.9537 33.5243 41.6779 34.7965C40.4022 36.0687 38.6719 36.7834 36.8677 36.7834Z" fill="url(#paint1_linear_78_403)"/>
<path fill-rule="evenodd" clip-rule="evenodd" d="M35.082 11.3672H24.9181C22.2224 11.3672 19.6372 12.438 17.7311 14.3441C15.825 16.2502 14.7542 18.8355 14.7542 21.5311C14.7542 24.2268 15.825 26.812 17.7311 28.7181C19.6372 30.6242 22.2224 31.6951 24.9181 31.6951H35.082C37.7777 31.6951 40.3629 30.6242 42.269 28.7181C44.1751 26.812 45.246 24.2268 45.246 21.5311C45.246 18.8355 44.1751 16.2502 42.269 14.3441C40.3629 12.438 37.7777 11.3672 35.082 11.3672ZM36.831 28.3567H23.1768C21.3677 28.3567 19.6328 27.638 18.3536 26.3589C17.0745 25.0797 16.3558 23.3448 16.3558 21.5357C16.3558 19.7267 17.0745 17.9918 18.3536 16.7126C19.6328 15.4334 21.3677 14.7148 23.1768 14.7148H36.831C38.64 14.7148 40.3749 15.4334 41.6541 16.7126C42.9333 17.9918 43.6519 19.7267 43.6519 21.5357C43.6519 23.3448 42.9333 25.0797 41.6541 26.3589C40.3749 27.638 38.64 28.3567 36.831 28.3567Z" fill="url(#paint2_linear_78_403)"/>
<defs>
<linearGradient id="paint0_linear_78_403" x1="21.5022" y1="50.4998" x2="38.8577" y2="30.9017" gradientUnits="userSpaceOnUse">
<stop stop-color="#B60000"/>
<stop offset="0.377585" stop-color="#F0F806"/>
<stop offset="0.732291" stop-color="#2CFFCA"/>
<stop offset="0.926296" stop-color="#0048FF"/>
</linearGradient>
<linearGradient id="paint1_linear_78_403" x1="-3.99756" y1="44.4998" x2="37.3366" y2="9.44055" gradientUnits="userSpaceOnUse">
<stop offset="0.275631" stop-color="#B60000"/>
<stop offset="0.541969" stop-color="#F0F806"/>
<stop offset="0.732291" stop-color="#2CFFCA"/>
<stop offset="1" stop-color="#0048FF"/>
</linearGradient>
<linearGradient id="paint2_linear_78_403" x1="11.0022" y1="24" x2="41.2232" y2="0.898887" gradientUnits="userSpaceOnUse">
<stop stop-color="#B60000"/>
<stop offset="0.440624" stop-color="#F0F806"/>
<stop offset="0.732291" stop-color="#2CFFCA"/>
<stop offset="1" stop-color="#0048FF"/>
</linearGradient>
</defs>
</svg>
