<svg width="60" height="60" viewBox="0 0 60 60" fill="none" xmlns="http://www.w3.org/2000/svg">
<path d="M30 60C46.5685 60 60 46.5685 60 30C60 13.4315 46.5685 0 30 0C13.4315 0 0 13.4315 0 30C0 46.5685 13.4315 60 30 60Z" fill="#50AF95"/>
<g clip-path="url(#clip0_221_3967)">
<path fill-rule="evenodd" clip-rule="evenodd" d="M15.2114 10.2128L6.70246 29.2914C6.67008 29.3624 6.65982 29.4425 6.67318 29.5202C6.68654 29.5978 6.72282 29.6688 6.7767 29.7229L29.7574 53.2292C29.8227 53.296 29.9096 53.3333 30 53.3333C30.0905 53.3333 30.1774 53.296 30.2427 53.2292L53.2234 29.7244C53.2773 29.6703 53.3136 29.5993 53.3269 29.5216C53.3403 29.444 53.33 29.3639 53.2976 29.2929L44.7887 10.2143C44.7612 10.1502 44.717 10.0959 44.6615 10.0579C44.6059 10.0199 44.5412 9.99984 44.4752 10H15.5276C15.4613 9.99915 15.3962 10.0188 15.3401 10.0565C15.284 10.0943 15.2393 10.1486 15.2114 10.2128Z" fill="#50AF95"/>
<path fill-rule="evenodd" clip-rule="evenodd" d="M32.9526 31.2508C32.7876 31.264 31.9352 31.3183 30.0338 31.3183C28.5214 31.3183 27.4477 31.2699 27.071 31.2508C21.2265 30.9764 16.8641 29.8904 16.8641 28.5901C16.8641 27.2898 21.2265 26.2053 27.071 25.9264V30.1692C27.4532 30.1986 28.5476 30.2675 30.0599 30.2675C31.8747 30.2675 32.7835 30.1868 32.9471 30.1707V25.9294C38.7792 26.2067 43.132 27.2927 43.132 28.5901C43.132 29.8874 38.7806 30.9734 32.9471 31.2493L32.9526 31.2508ZM32.9526 25.4906V21.6939H41.0917V15.9043H18.9318V21.6939H27.0696V25.4891C20.4552 25.8134 15.481 27.212 15.481 28.888C15.481 30.564 20.4552 31.9611 27.0696 32.2869V44.4532H32.9512V32.2825C39.5505 31.9582 44.5165 30.5611 44.5165 28.8865C44.5165 27.212 39.5546 25.8149 32.9512 25.4891L32.9526 25.4906Z" fill="white"/>
</g>
<defs>
<clipPath id="clip0_221_3967">
<rect width="46.6667" height="43.3333" fill="white" transform="translate(6.66675 10)"/>
</clipPath>
</defs>
</svg>
